<?xml version="1.0" encoding="UTF-8" standalone="no"?>
<svg
   xmlns:dc="http://purl.org/dc/elements/1.1/"
   xmlns:cc="http://web.resource.org/cc/"
   xmlns:rdf="http://www.w3.org/1999/02/22-rdf-syntax-ns#"
   xmlns:svg="http://www.w3.org/2000/svg"
   xmlns="http://www.w3.org/2000/svg"
   xmlns:sodipodi="http://sodipodi.sourceforge.net/DTD/sodipodi-0.dtd"
   xmlns:inkscape="http://www.inkscape.org/namespaces/inkscape"
   version="1.0"
   width="900"
   height="600"
   id="svg2"
   sodipodi:version="0.32"
   inkscape:version="0.45.1">
  <path
     style="fill:#ffffff"
     d="M 3.44e-006,2.1316282e-014 L 900,2.1316282e-014 L 900,600.00001 L 3.44e-006,600.00001 L 3.44e-006,2.1316282e-014 z "
     id="rect4" />
  <path
     style="font-size:24px;font-style:normal;font-variant:normal;font-weight:normal;font-stretch:normal;text-align:start;line-height:125%;writing-mode:lr-tb;text-anchor:start;font-family:Arial"
     d="M 336.8203,473.55739 L 339.0937,474.1316 C 338.6171,475.9988 337.7597,477.42262 336.5215,478.40309 C 335.2832,479.38356 333.7695,479.87379 331.9804,479.87379 C 330.1289,479.87379 328.623,479.49684 327.4629,478.74293 C 326.3027,477.98903 325.4199,476.89723 324.8144,475.46754 C 324.209,474.03786 323.9062,472.50271 323.9062,470.86207 C 323.9062,469.07302 324.248,467.51248 324.9316,466.18043 C 325.6152,464.84842 326.5879,463.8367 327.8496,463.14528 C 329.1113,462.45389 330.5,462.10818 332.0156,462.10817 C 333.7343,462.10818 335.1797,462.54568 336.3515,463.42067 C 337.5234,464.29568 338.3398,465.52615 338.8008,467.11207 L 336.5625,467.63942 C 336.164,466.38943 335.5859,465.47928 334.8281,464.90895 C 334.0703,464.33865 333.1172,464.0535 331.9687,464.05348 C 330.6484,464.0535 329.5449,464.3699 328.6582,465.0027 C 327.7715,465.63552 327.1484,466.48513 326.789,467.55153 C 326.4297,468.61794 326.25,469.71755 326.25,470.85035 C 326.25,472.3113 326.4629,473.58669 326.8886,474.67653 C 327.3144,475.76637 327.9765,476.58083 328.875,477.11989 C 329.7734,477.65895 330.7461,477.92848 331.7929,477.92848 C 333.0664,477.92848 334.1445,477.56129 335.0273,476.82692 C 335.9101,476.09255 336.5078,475.0027 336.8203,473.55739 L 336.8203,473.55739 z M 341.6133,479.58082 L 341.6133,467.13551 L 343.5117,467.13551 L 343.5117,469.02223 C 343.9961,468.13943 344.4433,467.5574 344.8535,467.27614 C 345.2636,466.9949 345.7148,466.85427 346.207,466.85426 C 346.9179,466.85427 347.6406,467.08084 348.375,467.53395 L 347.6484,469.49098 C 347.1328,469.1863 346.6172,469.03396 346.1015,469.03395 C 345.6406,469.03396 345.2265,469.17263 344.8594,469.44996 C 344.4922,469.72732 344.2304,470.11208 344.0742,470.60426 C 343.8398,471.35427 343.7226,472.17458 343.7226,473.0652 L 343.7226,479.58082 L 341.6133,479.58082 z M 358.1719,475.57301 L 360.3515,475.84254 C 360.0078,477.11598 359.3711,478.10426 358.4414,478.80739 C 357.5117,479.51051 356.3242,479.86207 354.8789,479.86207 C 353.0586,479.86207 351.6152,479.30153 350.5488,478.18043 C 349.4824,477.05934 348.9492,475.48708 348.9492,473.46364 C 348.9492,471.36989 349.4883,469.7449 350.5664,468.58864 C 351.6445,467.4324 353.0429,466.85427 354.7617,466.85426 C 356.4258,466.85427 357.7851,467.42068 358.8398,468.55348 C 359.8945,469.6863 360.4218,471.28005 360.4219,473.33473 C 360.4218,473.45974 360.4179,473.64724 360.4101,473.89723 L 351.1289,473.89723 C 351.207,475.26442 351.5937,476.3113 352.289,477.03785 C 352.9843,477.76442 353.8515,478.1277 354.8906,478.1277 C 355.664,478.1277 356.3242,477.92458 356.8711,477.51832 C 357.4179,477.11208 357.8515,476.46364 358.1719,475.57301 L 358.1719,475.57301 z M 351.2461,472.16285 L 358.1953,472.16285 C 358.1015,471.11599 357.8359,470.33083 357.3984,469.80739 C 356.7265,468.9949 355.8554,468.58865 354.7851,468.58864 C 353.8164,468.58865 353.0019,468.91287 352.3418,469.56129 C 351.6816,470.20974 351.3164,471.07693 351.2461,472.16285 L 351.2461,472.16285 z M 371.1328,478.04567 C 370.3515,478.70973 369.5996,479.17848 368.8769,479.45192 C 368.1543,479.72535 367.3789,479.86207 366.5508,479.86207 C 365.1836,479.86207 364.1328,479.52809 363.3984,478.86012 C 362.664,478.19215 362.2969,477.33864 362.2969,476.29957 C 362.2969,475.6902 362.4355,475.13356 362.7129,474.62965 C 362.9902,474.12575 363.3535,473.72145 363.8027,473.41676 C 364.2519,473.11208 364.7578,472.88161 365.3203,472.72535 C 365.7343,472.61599 366.3593,472.51052 367.1953,472.40895 C 368.8984,472.20583 370.1523,471.96364 370.957,471.68239 C 370.9648,471.39333 370.9687,471.20974 370.9687,471.1316 C 370.9687,470.27224 370.7695,469.66677 370.3711,469.3152 C 369.832,468.83865 369.0312,468.60037 367.9687,468.60035 C 366.9765,468.60037 366.2441,468.77419 365.7715,469.12184 C 365.2988,469.46951 364.9492,470.08474 364.7226,470.96754 L 362.6601,470.68629 C 362.8476,469.80349 363.1562,469.0906 363.5859,468.54762 C 364.0156,468.00466 364.6367,467.58669 365.4492,467.29371 C 366.2617,467.00076 367.2031,466.85427 368.2734,466.85426 C 369.3359,466.85427 370.1992,466.97927 370.8632,467.22926 C 371.5273,467.47927 372.0156,467.79373 372.3281,468.17262 C 372.6406,468.55154 372.8593,469.03005 372.9844,469.60817 C 373.0547,469.96755 373.0898,470.61599 373.0898,471.55348 L 373.0898,474.36598 C 373.0898,476.32692 373.1347,477.56715 373.2246,478.08668 C 373.3144,478.60622 373.4922,479.10426 373.7578,479.58082 L 371.5547,479.58082 C 371.3359,479.14332 371.1953,478.63161 371.1328,478.04567 L 371.1328,478.04567 z M 370.957,473.33473 C 370.1914,473.64724 369.0429,473.91286 367.5117,474.1316 C 366.6445,474.25661 366.0312,474.39723 365.6719,474.55348 C 365.3125,474.70973 365.0351,474.93825 364.8398,475.23903 C 364.6445,475.53981 364.5468,475.8738 364.5469,476.24098 C 364.5468,476.80348 364.7597,477.27223 365.1855,477.64723 C 365.6113,478.02223 366.2343,478.20973 367.0547,478.20973 C 367.8672,478.20973 368.5898,478.032 369.2226,477.67653 C 369.8554,477.32106 370.3203,476.83473 370.6172,476.21754 C 370.8437,475.74098 370.957,475.03786 370.957,474.10817 L 370.957,473.33473 z M 380.9765,477.6941 L 381.2812,479.55739 C 380.6875,479.68239 380.1562,479.74489 379.6875,479.74489 C 378.9218,479.74489 378.3281,479.62379 377.9062,479.3816 C 377.4843,479.13942 377.1875,478.82106 377.0156,478.42653 C 376.8437,478.032 376.7578,477.20192 376.7578,475.93629 L 376.7578,468.77614 L 375.2109,468.77614 L 375.2109,467.13551 L 376.7578,467.13551 L 376.7578,464.05348 L 378.8554,462.78785 L 378.8554,467.13551 L 380.9765,467.13551 L 380.9765,468.77614 L 378.8554,468.77614 L 378.8554,476.05348 C 378.8554,476.65505 378.8926,477.04176 378.9668,477.21364 C 379.041,477.38551 379.1621,477.52223 379.3301,477.62379 C 379.498,477.72536 379.7382,477.77614 380.0508,477.77614 C 380.2851,477.77614 380.5937,477.74879 380.9765,477.6941 L 380.9765,477.6941 z M 391.5469,475.57301 L 393.7265,475.84254 C 393.3828,477.11598 392.7461,478.10426 391.8164,478.80739 C 390.8867,479.51051 389.6992,479.86207 388.2539,479.86207 C 386.4336,479.86207 384.9902,479.30153 383.9238,478.18043 C 382.8574,477.05934 382.3242,475.48708 382.3242,473.46364 C 382.3242,471.36989 382.8632,469.7449 383.9414,468.58864 C 385.0195,467.4324 386.4179,466.85427 388.1367,466.85426 C 389.8008,466.85427 391.1601,467.42068 392.2148,468.55348 C 393.2695,469.6863 393.7968,471.28005 393.7969,473.33473 C 393.7968,473.45974 393.7929,473.64724 393.7851,473.89723 L 384.5039,473.89723 C 384.582,475.26442 384.9687,476.3113 385.664,477.03785 C 386.3593,477.76442 387.2265,478.1277 388.2656,478.1277 C 389.039,478.1277 389.6992,477.92458 390.2461,477.51832 C 390.7929,477.11208 391.2265,476.46364 391.5469,475.57301 L 391.5469,475.57301 z M 384.6211,472.16285 L 391.5703,472.16285 C 391.4765,471.11599 391.2109,470.33083 390.7734,469.80739 C 390.1015,468.9949 389.2304,468.58865 388.1601,468.58864 C 387.1914,468.58865 386.3769,468.91287 385.7168,469.56129 C 385.0566,470.20974 384.6914,471.07693 384.6211,472.16285 L 384.6211,472.16285 z M 404.4609,479.58082 L 404.4609,478.01051 C 403.6718,479.24489 402.5117,479.86207 400.9804,479.86207 C 399.9883,479.86207 399.0761,479.58864 398.2441,479.04176 C 397.4121,478.49489 396.7676,477.73122 396.3105,476.75075 C 395.8535,475.77028 395.625,474.64333 395.625,473.36989 C 395.625,472.12771 395.832,471.00075 396.2461,469.98903 C 396.6601,468.97732 397.2812,468.20193 398.1094,467.66285 C 398.9375,467.1238 399.8632,466.85427 400.8867,466.85426 C 401.6367,466.85427 402.3047,467.01248 402.8906,467.32887 C 403.4765,467.64529 403.9531,468.0574 404.3203,468.5652 L 404.3203,462.40114 L 406.4179,462.40114 L 406.4179,479.58082 L 404.4609,479.58082 z M 397.7929,473.36989 C 397.7929,474.96364 398.1289,476.15505 398.8008,476.9441 C 399.4726,477.73317 400.2656,478.1277 401.1797,478.1277 C 402.1015,478.1277 402.8847,477.75075 403.5293,476.99684 C 404.1738,476.24294 404.4961,475.09255 404.4961,473.54567 C 404.4961,471.84255 404.1679,470.59255 403.5117,469.79567 C 402.8554,468.9988 402.0468,468.60037 401.0859,468.60035 C 400.1484,468.60037 399.3652,468.98318 398.7363,469.74879 C 398.1074,470.51443 397.7929,471.72146 397.7929,473.36989 L 397.7929,473.36989 z M 418.3476,479.58082 L 416.3906,479.58082 L 416.3906,462.40114 L 418.5,462.40114 L 418.5,468.53004 C 419.3906,467.41287 420.5273,466.85427 421.9101,466.85426 C 422.6758,466.85427 423.4004,467.00857 424.084,467.31715 C 424.7675,467.62576 425.33,468.05935 425.7715,468.61793 C 426.2128,469.17654 426.5586,469.85036 426.8086,470.63942 C 427.0586,471.42849 427.1836,472.27224 427.1836,473.17067 C 427.1836,475.30348 426.6562,476.95192 425.6015,478.11598 C 424.5468,479.28004 423.2812,479.86207 421.8047,479.86207 C 420.3359,479.86207 419.1836,479.24879 418.3476,478.02223 L 418.3476,479.58082 z M 418.3242,473.26442 C 418.3242,474.75661 418.5273,475.83473 418.9336,476.49879 C 419.5976,477.58473 420.4961,478.1277 421.6289,478.1277 C 422.5508,478.1277 423.3476,477.72731 424.0195,476.92653 C 424.6914,476.12575 425.0273,474.93239 425.0273,473.34645 C 425.0273,471.72146 424.705,470.52224 424.0605,469.74879 C 423.416,468.97537 422.6367,468.58865 421.7226,468.58864 C 420.8008,468.58865 420.0039,468.98904 419.332,469.78981 C 418.6601,470.5906 418.3242,471.7488 418.3242,473.26442 L 418.3242,473.26442 z M 429.6679,484.37379 L 429.4336,482.39332 C 429.8945,482.51832 430.2969,482.58082 430.6406,482.58082 C 431.1093,482.58082 431.4843,482.5027 431.7656,482.34645 C 432.0468,482.1902 432.2773,481.97145 432.457,481.6902 C 432.5898,481.47926 432.8047,480.95582 433.1015,480.11989 C 433.1406,480.0027 433.2031,479.83082 433.289,479.60426 L 428.5664,467.13551 L 430.8398,467.13551 L 433.4297,474.34254 C 433.7656,475.25661 434.0664,476.21755 434.332,477.22535 C 434.5742,476.25661 434.8632,475.3113 435.1992,474.38942 L 437.8594,467.13551 L 439.9687,467.13551 L 435.2344,479.79176 C 434.7265,481.15895 434.332,482.10035 434.0508,482.61598 C 433.6758,483.31129 433.2461,483.82105 432.7617,484.14528 C 432.2773,484.46949 431.6992,484.6316 431.0273,484.6316 C 430.6211,484.6316 430.1679,484.54566 429.6679,484.37379 L 429.6679,484.37379 z M 448.6875,479.58082 L 448.6875,462.40114 L 454.6054,462.40114 C 455.9414,462.40115 456.9609,462.48318 457.664,462.64723 C 458.6484,462.87381 459.4882,463.28396 460.1836,463.8777 C 461.0898,464.64334 461.7675,465.62185 462.2168,466.81325 C 462.666,468.00466 462.8906,469.36599 462.8906,470.89723 C 462.8906,472.20192 462.7382,473.35817 462.4336,474.36598 C 462.1289,475.3738 461.7382,476.20778 461.2617,476.86793 C 460.7851,477.52809 460.2636,478.04762 459.6972,478.42653 C 459.1308,478.80543 458.4472,479.09254 457.6465,479.28785 C 456.8457,479.48317 455.9257,479.58082 454.8867,479.58082 L 448.6875,479.58082 z M 450.9609,477.55348 L 454.6289,477.55348 C 455.7617,477.55348 456.6504,477.44801 457.2949,477.23707 C 457.9394,477.02614 458.4531,476.72926 458.8359,476.34645 C 459.375,475.80739 459.7949,475.08278 460.0957,474.17262 C 460.3964,473.26247 460.5468,472.15896 460.5469,470.86207 C 460.5468,469.06521 460.2519,467.68435 459.6621,466.7195 C 459.0722,465.75467 458.3554,465.10818 457.5117,464.78004 C 456.9023,464.54568 455.9218,464.42849 454.5703,464.42848 L 450.9609,464.42848 L 450.9609,477.55348 z M 474.2812,475.57301 L 476.4609,475.84254 C 476.1172,477.11598 475.4804,478.10426 474.5508,478.80739 C 473.6211,479.51051 472.4336,479.86207 470.9883,479.86207 C 469.1679,479.86207 467.7246,479.30153 466.6582,478.18043 C 465.5918,477.05934 465.0586,475.48708 465.0586,473.46364 C 465.0586,471.36989 465.5976,469.7449 466.6758,468.58864 C 467.7539,467.4324 469.1523,466.85427 470.8711,466.85426 C 472.5351,466.85427 473.8945,467.42068 474.9492,468.55348 C 476.0039,469.6863 476.5312,471.28005 476.5312,473.33473 C 476.5312,473.45974 476.5273,473.64724 476.5195,473.89723 L 467.2382,473.89723 C 467.3164,475.26442 467.7031,476.3113 468.3984,477.03785 C 469.0937,477.76442 469.9609,478.1277 471,478.1277 C 471.7734,478.1277 472.4336,477.92458 472.9804,477.51832 C 473.5273,477.11208 473.9609,476.46364 474.2812,475.57301 L 474.2812,475.57301 z M 467.3554,472.16285 L 474.3047,472.16285 C 474.2109,471.11599 473.9453,470.33083 473.5078,469.80739 C 472.8359,468.9949 471.9648,468.58865 470.8945,468.58864 C 469.9258,468.58865 469.1113,468.91287 468.4511,469.56129 C 467.791,470.20974 467.4258,471.07693 467.3554,472.16285 L 467.3554,472.16285 z M 482.5781,479.58082 L 477.8437,467.13551 L 480.0703,467.13551 L 482.7422,474.58864 C 483.0312,475.39333 483.2968,476.22926 483.539,477.09645 C 483.7265,476.4402 483.9883,475.65114 484.3242,474.72926 L 487.0898,467.13551 L 489.2578,467.13551 L 484.5469,479.58082 L 482.5781,479.58082 z M 491.1328,464.82692 L 491.1328,462.40114 L 493.2422,462.40114 L 493.2422,464.82692 L 491.1328,464.82692 z M 491.1328,479.58082 L 491.1328,467.13551 L 493.2422,467.13551 L 493.2422,479.58082 L 491.1328,479.58082 z M 496.4648,479.58082 L 496.4648,467.13551 L 498.3632,467.13551 L 498.3632,468.90504 C 499.2773,467.53787 500.5976,466.85427 502.3242,466.85426 C 503.0742,466.85427 503.7636,466.98904 504.3926,467.25856 C 505.0215,467.5281 505.4922,467.88162 505.8047,468.3191 C 506.1172,468.75662 506.3359,469.27615 506.4609,469.8777 C 506.539,470.26833 506.5781,470.95193 506.5781,471.92848 L 506.5781,479.58082 L 504.4687,479.58082 L 504.4687,472.01051 C 504.4687,471.15114 504.3867,470.50857 504.2226,470.08278 C 504.0586,469.65701 503.7675,469.31716 503.3496,469.06325 C 502.9316,468.80935 502.4414,468.6824 501.8789,468.68239 C 500.9804,468.6824 500.2051,468.96755 499.5527,469.53785 C 498.9004,470.10818 498.5742,471.19021 498.5742,472.78395 L 498.5742,479.58082 L 496.4648,479.58082 z M 529.0078,473.55739 L 531.2812,474.1316 C 530.8046,475.9988 529.9472,477.42262 528.709,478.40309 C 527.4707,479.38356 525.957,479.87379 524.1679,479.87379 C 522.3164,479.87379 520.8105,479.49684 519.6504,478.74293 C 518.4902,477.98903 517.6074,476.89723 517.0019,475.46754 C 516.3965,474.03786 516.0937,472.50271 516.0937,470.86207 C 516.0937,469.07302 516.4355,467.51248 517.1191,466.18043 C 517.8027,464.84842 518.7754,463.8367 520.0371,463.14528 C 521.2988,462.45389 522.6875,462.10818 524.2031,462.10817 C 525.9218,462.10818 527.3672,462.54568 528.539,463.42067 C 529.7109,464.29568 530.5273,465.52615 530.9883,467.11207 L 528.75,467.63942 C 528.3515,466.38943 527.7734,465.47928 527.0156,464.90895 C 526.2578,464.33865 525.3047,464.0535 524.1562,464.05348 C 522.8359,464.0535 521.7324,464.3699 520.8457,465.0027 C 519.959,465.63552 519.3359,466.48513 518.9765,467.55153 C 518.6172,468.61794 518.4375,469.71755 518.4375,470.85035 C 518.4375,472.3113 518.6504,473.58669 519.0761,474.67653 C 519.5019,475.76637 520.164,476.58083 521.0625,477.11989 C 521.9609,477.65895 522.9336,477.92848 523.9804,477.92848 C 525.2539,477.92848 526.332,477.56129 527.2148,476.82692 C 528.0976,476.09255 528.6953,475.0027 529.0078,473.55739 L 529.0078,473.55739 z M 533.039,473.35817 C 533.039,471.05349 533.6797,469.34646 534.9609,468.23707 C 536.0312,467.31521 537.3359,466.85427 538.875,466.85426 C 540.5859,466.85427 541.9843,467.41482 543.0703,468.5359 C 544.1562,469.65701 544.6992,471.20583 544.6992,473.18239 C 544.6992,474.78395 544.4589,476.04372 543.9785,476.96168 C 543.498,477.87965 542.7988,478.59254 541.8808,479.10035 C 540.9628,479.60817 539.9609,479.86207 538.875,479.86207 C 537.1328,479.86207 535.7246,479.30348 534.6504,478.18629 C 533.5761,477.06911 533.039,475.45973 533.039,473.35817 L 533.039,473.35817 z M 535.207,473.35817 C 535.207,474.95192 535.5547,476.14528 536.25,476.93825 C 536.9453,477.73122 537.8203,478.1277 538.875,478.1277 C 539.9218,478.1277 540.7929,477.72926 541.4883,476.93239 C 542.1836,476.13551 542.5312,474.92067 542.5312,473.28785 C 542.5312,471.7488 542.1816,470.58279 541.4824,469.78981 C 540.7832,468.99685 539.914,468.60037 538.875,468.60035 C 537.8203,468.60037 536.9453,468.9949 536.25,469.78395 C 535.5547,470.57302 535.207,471.76443 535.207,473.35817 L 535.207,473.35817 z M 546.3984,473.35817 C 546.3984,471.05349 547.039,469.34646 548.3203,468.23707 C 549.3906,467.31521 550.6953,466.85427 552.2344,466.85426 C 553.9453,466.85427 555.3437,467.41482 556.4297,468.5359 C 557.5156,469.65701 558.0586,471.20583 558.0586,473.18239 C 558.0586,474.78395 557.8183,476.04372 557.3379,476.96168 C 556.8574,477.87965 556.1582,478.59254 555.2402,479.10035 C 554.3222,479.60817 553.3203,479.86207 552.2344,479.86207 C 550.4922,479.86207 549.084,479.30348 548.0097,478.18629 C 546.9355,477.06911 546.3984,475.45973 546.3984,473.35817 L 546.3984,473.35817 z M 548.5664,473.35817 C 548.5664,474.95192 548.914,476.14528 549.6094,476.93825 C 550.3047,477.73122 551.1797,478.1277 552.2344,478.1277 C 553.2812,478.1277 554.1523,477.72926 554.8476,476.93239 C 555.5429,476.13551 555.8906,474.92067 555.8906,473.28785 C 555.8906,471.7488 555.541,470.58279 554.8418,469.78981 C 554.1425,468.99685 553.2734,468.60037 552.2344,468.60035 C 551.1797,468.60037 550.3047,468.9949 549.6094,469.78395 C 548.914,470.57302 548.5664,471.76443 548.5664,473.35817 L 548.5664,473.35817 z M 560.5547,479.58082 L 560.5547,462.40114 L 562.664,462.40114 L 562.664,472.19801 L 567.6562,467.13551 L 570.3867,467.13551 L 565.6289,471.7527 L 570.8672,479.58082 L 568.2656,479.58082 L 564.1523,473.21754 L 562.664,474.64723 L 562.664,479.58082 L 560.5547,479.58082 z M 324.2929,509.58082 L 324.2929,492.40114 L 326.4023,492.40114 L 326.4023,498.5652 C 327.3867,497.42459 328.6289,496.85427 330.1289,496.85426 C 331.0508,496.85427 331.8515,497.03591 332.5312,497.39918 C 333.2109,497.76248 333.6972,498.26443 333.9902,498.90504 C 334.2832,499.54568 334.4297,500.47536 334.4297,501.6941 L 334.4297,509.58082 L 332.3203,509.58082 L 332.3203,501.6941 C 332.3203,500.63943 332.0918,499.87185 331.6347,499.39137 C 331.1777,498.91091 330.5312,498.67068 329.6953,498.67067 C 329.0703,498.67068 328.4824,498.83279 327.9316,499.157 C 327.3808,499.48122 326.9883,499.92068 326.7539,500.47535 C 326.5195,501.03005 326.4023,501.79567 326.4023,502.77223 L 326.4023,509.58082 L 324.2929,509.58082 z M 342.2578,507.6941 L 342.5625,509.55739 C 341.9687,509.68239 341.4375,509.74489 340.9687,509.74489 C 340.2031,509.74489 339.6093,509.62379 339.1875,509.3816 C 338.7656,509.13942 338.4687,508.82106 338.2969,508.42653 C 338.125,508.032 338.039,507.20192 338.039,505.93629 L 338.039,498.77614 L 336.4922,498.77614 L 336.4922,497.13551 L 338.039,497.13551 L 338.039,494.05348 L 340.1367,492.78785 L 340.1367,497.13551 L 342.2578,497.13551 L 342.2578,498.77614 L 340.1367,498.77614 L 340.1367,506.05348 C 340.1367,506.65505 340.1738,507.04176 340.248,507.21364 C 340.3222,507.38551 340.4433,507.52223 340.6113,507.62379 C 340.7793,507.72536 341.0195,507.77614 341.332,507.77614 C 341.5664,507.77614 341.875,507.74879 342.2578,507.6941 L 342.2578,507.6941 z M 348.914,507.6941 L 349.2187,509.55739 C 348.625,509.68239 348.0937,509.74489 347.625,509.74489 C 346.8593,509.74489 346.2656,509.62379 345.8437,509.3816 C 345.4218,509.13942 345.125,508.82106 344.9531,508.42653 C 344.7812,508.032 344.6953,507.20192 344.6953,505.93629 L 344.6953,498.77614 L 343.1484,498.77614 L 343.1484,497.13551 L 344.6953,497.13551 L 344.6953,494.05348 L 346.7929,492.78785 L 346.7929,497.13551 L 348.914,497.13551 L 348.914,498.77614 L 346.7929,498.77614 L 346.7929,506.05348 C 346.7929,506.65505 346.8301,507.04176 346.9043,507.21364 C 346.9785,507.38551 347.0996,507.52223 347.2676,507.62379 C 347.4355,507.72536 347.6758,507.77614 347.9883,507.77614 C 348.2226,507.77614 348.5312,507.74879 348.914,507.6941 L 348.914,507.6941 z M 350.9648,514.35035 L 350.9648,497.13551 L 352.8867,497.13551 L 352.8867,498.7527 C 353.3398,498.1199 353.8515,497.64529 354.4219,497.32887 C 354.9922,497.01248 355.6836,496.85427 356.4961,496.85426 C 357.5586,496.85427 358.4961,497.12771 359.3086,497.67457 C 360.1211,498.22146 360.7343,498.99294 361.1484,499.98903 C 361.5625,500.98513 361.7695,502.07692 361.7695,503.26442 C 361.7695,504.53786 361.541,505.68434 361.084,506.70387 C 360.6269,507.7234 359.9628,508.50465 359.0918,509.04762 C 358.2207,509.59059 357.3047,509.86207 356.3437,509.86207 C 355.6406,509.86207 355.0097,509.71364 354.4511,509.41676 C 353.8926,509.11989 353.4336,508.74489 353.0742,508.29176 L 353.0742,514.35035 L 350.9648,514.35035 z M 352.875,503.42848 C 352.875,505.03005 353.1992,506.21364 353.8476,506.97926 C 354.4961,507.74489 355.2812,508.1277 356.2031,508.1277 C 357.1406,508.1277 357.9433,507.73122 358.6113,506.93825 C 359.2793,506.14528 359.6132,504.91677 359.6133,503.2527 C 359.6132,501.66677 359.2871,500.47927 358.6347,499.6902 C 357.9824,498.90115 357.2031,498.50662 356.2969,498.5066 C 355.3984,498.50662 354.6035,498.92654 353.9121,499.76637 C 353.2207,500.60622 352.875,501.82692 352.875,503.42848 L 352.875,503.42848 z M 364.9101,499.53785 L 364.9101,497.13551 L 367.3125,497.13551 L 367.3125,499.53785 L 364.9101,499.53785 z M 364.9101,509.58082 L 364.9101,507.17848 L 367.3125,507.17848 L 367.3125,509.58082 L 364.9101,509.58082 z M 369.3984,509.87379 L 374.3789,492.10817 L 376.0664,492.10817 L 371.0976,509.87379 L 369.3984,509.87379 z M 376.0547,509.87379 L 381.0351,492.10817 L 382.7226,492.10817 L 377.7539,509.87379 L 376.0547,509.87379 z M 386.5898,509.58082 L 382.7812,497.13551 L 384.9609,497.13551 L 386.9414,504.3191 L 387.6797,506.99098 C 387.7109,506.85817 387.9258,506.0027 388.3242,504.42457 L 390.3047,497.13551 L 392.4726,497.13551 L 394.3359,504.35426 L 394.957,506.73317 L 395.6719,504.33082 L 397.8047,497.13551 L 399.8554,497.13551 L 395.9648,509.58082 L 393.7734,509.58082 L 391.7929,502.1277 L 391.3125,500.0066 L 388.7929,509.58082 L 386.5898,509.58082 z M 403.9336,509.58082 L 400.125,497.13551 L 402.3047,497.13551 L 404.2851,504.3191 L 405.0234,506.99098 C 405.0547,506.85817 405.2695,506.0027 405.6679,504.42457 L 407.6484,497.13551 L 409.8164,497.13551 L 411.6797,504.35426 L 412.3008,506.73317 L 413.0156,504.33082 L 415.1484,497.13551 L 417.1992,497.13551 L 413.3086,509.58082 L 411.1172,509.58082 L 409.1367,502.1277 L 408.6562,500.0066 L 406.1367,509.58082 L 403.9336,509.58082 z M 421.2773,509.58082 L 417.4687,497.13551 L 419.6484,497.13551 L 421.6289,504.3191 L 422.3672,506.99098 C 422.3984,506.85817 422.6133,506.0027 423.0117,504.42457 L 424.9922,497.13551 L 427.1601,497.13551 L 429.0234,504.35426 L 429.6445,506.73317 L 430.3594,504.33082 L 432.4922,497.13551 L 434.5429,497.13551 L 430.6523,509.58082 L 428.4609,509.58082 L 426.4804,502.1277 L 426,500.0066 L 423.4804,509.58082 L 421.2773,509.58082 z M 436.9219,509.58082 L 436.9219,507.17848 L 439.3242,507.17848 L 439.3242,509.58082 L 436.9219,509.58082 z M 451.0547,509.58082 L 451.0547,508.01051 C 450.2656,509.24489 449.1054,509.86207 447.5742,509.86207 C 446.582,509.86207 445.6699,509.58864 444.8379,509.04176 C 444.0058,508.49489 443.3613,507.73122 442.9043,506.75075 C 442.4472,505.77028 442.2187,504.64333 442.2187,503.36989 C 442.2187,502.12771 442.4258,501.00075 442.8398,499.98903 C 443.2539,498.97732 443.875,498.20193 444.7031,497.66285 C 445.5312,497.1238 446.457,496.85427 447.4804,496.85426 C 448.2304,496.85427 448.8984,497.01248 449.4844,497.32887 C 450.0703,497.64529 450.5468,498.0574 450.914,498.5652 L 450.914,492.40114 L 453.0117,492.40114 L 453.0117,509.58082 L 451.0547,509.58082 z M 444.3867,503.36989 C 444.3867,504.96364 444.7226,506.15505 445.3945,506.9441 C 446.0664,507.73317 446.8593,508.1277 447.7734,508.1277 C 448.6953,508.1277 449.4785,507.75075 450.123,506.99684 C 450.7675,506.24294 451.0898,505.09255 451.0898,503.54567 C 451.0898,501.84255 450.7617,500.59255 450.1054,499.79567 C 449.4492,498.9988 448.6406,498.60037 447.6797,498.60035 C 446.7422,498.60037 445.959,498.98318 445.3301,499.74879 C 444.7011,500.51443 444.3867,501.72146 444.3867,503.36989 L 444.3867,503.36989 z M 464.8594,505.57301 L 467.039,505.84254 C 466.6953,507.11598 466.0586,508.10426 465.1289,508.80739 C 464.1992,509.51051 463.0117,509.86207 461.5664,509.86207 C 459.7461,509.86207 458.3027,509.30153 457.2363,508.18043 C 456.1699,507.05934 455.6367,505.48708 455.6367,503.46364 C 455.6367,501.36989 456.1758,499.7449 457.2539,498.58864 C 458.332,497.4324 459.7304,496.85427 461.4492,496.85426 C 463.1133,496.85427 464.4726,497.42068 465.5273,498.55348 C 466.582,499.6863 467.1093,501.28005 467.1094,503.33473 C 467.1093,503.45974 467.1054,503.64724 467.0976,503.89723 L 457.8164,503.89723 C 457.8945,505.26442 458.2812,506.3113 458.9765,507.03785 C 459.6718,507.76442 460.539,508.1277 461.5781,508.1277 C 462.3515,508.1277 463.0117,507.92458 463.5586,507.51832 C 464.1054,507.11208 464.539,506.46364 464.8594,505.57301 L 464.8594,505.57301 z M 457.9336,502.16285 L 464.8828,502.16285 C 464.789,501.11599 464.5234,500.33083 464.0859,499.80739 C 463.414,498.9949 462.5429,498.58865 461.4726,498.58864 C 460.5039,498.58865 459.6894,498.91287 459.0293,499.56129 C 458.3691,500.20974 458.0039,501.07693 457.9336,502.16285 L 457.9336,502.16285 z M 473.1562,509.58082 L 468.4219,497.13551 L 470.6484,497.13551 L 473.3203,504.58864 C 473.6093,505.39333 473.875,506.22926 474.1172,507.09645 C 474.3047,506.4402 474.5664,505.65114 474.9023,504.72926 L 477.6679,497.13551 L 479.8359,497.13551 L 475.125,509.58082 L 473.1562,509.58082 z M 481.7109,494.82692 L 481.7109,492.40114 L 483.8203,492.40114 L 483.8203,494.82692 L 481.7109,494.82692 z M 481.7109,509.58082 L 481.7109,497.13551 L 483.8203,497.13551 L 483.8203,509.58082 L 481.7109,509.58082 z M 487.0429,509.58082 L 487.0429,497.13551 L 488.9414,497.13551 L 488.9414,498.90504 C 489.8554,497.53787 491.1758,496.85427 492.9023,496.85426 C 493.6523,496.85427 494.3418,496.98904 494.9707,497.25856 C 495.5996,497.5281 496.0703,497.88162 496.3828,498.3191 C 496.6953,498.75662 496.914,499.27615 497.039,499.8777 C 497.1172,500.26833 497.1562,500.95193 497.1562,501.92848 L 497.1562,509.58082 L 495.0469,509.58082 L 495.0469,502.01051 C 495.0468,501.15114 494.9648,500.50857 494.8008,500.08278 C 494.6367,499.65701 494.3457,499.31716 493.9277,499.06325 C 493.5097,498.80935 493.0195,498.6824 492.457,498.68239 C 491.5586,498.6824 490.7832,498.96755 490.1308,499.53785 C 489.4785,500.10818 489.1523,501.19021 489.1523,502.78395 L 489.1523,509.58082 L 487.0429,509.58082 z M 508.5234,505.02223 L 510.5976,505.29176 C 510.3711,506.72145 509.791,507.84059 508.8574,508.64918 C 507.9238,509.45778 506.7773,509.86207 505.4179,509.86207 C 503.7148,509.86207 502.3457,509.30543 501.3105,508.19215 C 500.2754,507.07887 499.7578,505.48317 499.7578,503.40504 C 499.7578,502.0613 499.9804,500.88552 500.4258,499.8777 C 500.8711,498.8699 501.5488,498.11404 502.459,497.61012 C 503.3691,497.10623 504.3593,496.85427 505.4297,496.85426 C 506.7812,496.85427 507.8867,497.19607 508.7461,497.87965 C 509.6054,498.56326 510.1562,499.53396 510.3984,500.79176 L 508.3476,501.10817 C 508.1523,500.27224 507.8066,499.64333 507.3105,499.22145 C 506.8144,498.79958 506.2148,498.58865 505.5117,498.58864 C 504.4492,498.58865 503.5859,498.96951 502.9219,499.73121 C 502.2578,500.49294 501.9258,501.69802 501.9258,503.34645 C 501.9258,505.01833 502.2461,506.23317 502.8867,506.99098 C 503.5273,507.74879 504.3632,508.1277 505.3945,508.1277 C 506.2226,508.1277 506.914,507.87379 507.4687,507.36598 C 508.0234,506.85817 508.375,506.07692 508.5234,505.02223 L 508.5234,505.02223 z M 511.6172,503.35817 C 511.6172,501.05349 512.2578,499.34646 513.539,498.23707 C 514.6093,497.31521 515.914,496.85427 517.4531,496.85426 C 519.164,496.85427 520.5625,497.41482 521.6484,498.5359 C 522.7343,499.65701 523.2773,501.20583 523.2773,503.18239 C 523.2773,504.78395 523.0371,506.04372 522.5566,506.96168 C 522.0761,507.87965 521.3769,508.59254 520.459,509.10035 C 519.541,509.60817 518.539,509.86207 517.4531,509.86207 C 515.7109,509.86207 514.3027,509.30348 513.2285,508.18629 C 512.1543,507.06911 511.6172,505.45973 511.6172,503.35817 L 511.6172,503.35817 z M 513.7851,503.35817 C 513.7851,504.95192 514.1328,506.14528 514.8281,506.93825 C 515.5234,507.73122 516.3984,508.1277 517.4531,508.1277 C 518.5,508.1277 519.3711,507.72926 520.0664,506.93239 C 520.7617,506.13551 521.1093,504.92067 521.1094,503.28785 C 521.1093,501.7488 520.7597,500.58279 520.0605,499.78981 C 519.3613,498.99685 518.4922,498.60037 517.4531,498.60035 C 516.3984,498.60037 515.5234,498.9949 514.8281,499.78395 C 514.1328,500.57302 513.7851,501.76443 513.7851,503.35817 L 513.7851,503.35817 z M 524.9765,503.35817 C 524.9765,501.05349 525.6172,499.34646 526.8984,498.23707 C 527.9687,497.31521 529.2734,496.85427 530.8125,496.85426 C 532.5234,496.85427 533.9218,497.41482 535.0078,498.5359 C 536.0937,499.65701 536.6367,501.20583 536.6367,503.18239 C 536.6367,504.78395 536.3964,506.04372 535.916,506.96168 C 535.4355,507.87965 534.7363,508.59254 533.8183,509.10035 C 532.9004,509.60817 531.8984,509.86207 530.8125,509.86207 C 529.0703,509.86207 527.6621,509.30348 526.5879,508.18629 C 525.5136,507.06911 524.9765,505.45973 524.9765,503.35817 L 524.9765,503.35817 z M 527.1445,503.35817 C 527.1445,504.95192 527.4922,506.14528 528.1875,506.93825 C 528.8828,507.73122 529.7578,508.1277 530.8125,508.1277 C 531.8593,508.1277 532.7304,507.72926 533.4258,506.93239 C 534.1211,506.13551 534.4687,504.92067 534.4687,503.28785 C 534.4687,501.7488 534.1191,500.58279 533.4199,499.78981 C 532.7207,498.99685 531.8515,498.60037 530.8125,498.60035 C 529.7578,498.60037 528.8828,498.9949 528.1875,499.78395 C 527.4922,500.57302 527.1445,501.76443 527.1445,503.35817 L 527.1445,503.35817 z M 539.1328,509.58082 L 539.1328,492.40114 L 541.2422,492.40114 L 541.2422,502.19801 L 546.2344,497.13551 L 548.9648,497.13551 L 544.207,501.7527 L 549.4453,509.58082 L 546.8437,509.58082 L 542.7304,503.21754 L 541.2422,504.64723 L 541.2422,509.58082 L 539.1328,509.58082 z M 551.7187,509.58082 L 551.7187,507.17848 L 554.1211,507.17848 L 554.1211,509.58082 L 551.7187,509.58082 z M 565.8984,505.02223 L 567.9726,505.29176 C 567.7461,506.72145 567.166,507.84059 566.2324,508.64918 C 565.2988,509.45778 564.1523,509.86207 562.7929,509.86207 C 561.0898,509.86207 559.7207,509.30543 558.6855,508.19215 C 557.6504,507.07887 557.1328,505.48317 557.1328,503.40504 C 557.1328,502.0613 557.3554,500.88552 557.8008,499.8777 C 558.2461,498.8699 558.9238,498.11404 559.834,497.61012 C 560.7441,497.10623 561.7343,496.85427 562.8047,496.85426 C 564.1562,496.85427 565.2617,497.19607 566.1211,497.87965 C 566.9804,498.56326 567.5312,499.53396 567.7734,500.79176 L 565.7226,501.10817 C 565.5273,500.27224 565.1816,499.64333 564.6855,499.22145 C 564.1894,498.79958 563.5898,498.58865 562.8867,498.58864 C 561.8242,498.58865 560.9609,498.96951 560.2969,499.73121 C 559.6328,500.49294 559.3008,501.69802 559.3008,503.34645 C 559.3008,505.01833 559.6211,506.23317 560.2617,506.99098 C 560.9023,507.74879 561.7382,508.1277 562.7695,508.1277 C 563.5976,508.1277 564.289,507.87379 564.8437,507.36598 C 565.3984,506.85817 565.75,506.07692 565.8984,505.02223 L 565.8984,505.02223 z M 568.9922,503.35817 C 568.9922,501.05349 569.6328,499.34646 570.914,498.23707 C 571.9843,497.31521 573.289,496.85427 574.8281,496.85426 C 576.539,496.85427 577.9375,497.41482 579.0234,498.5359 C 580.1093,499.65701 580.6523,501.20583 580.6523,503.18239 C 580.6523,504.78395 580.4121,506.04372 579.9316,506.96168 C 579.4511,507.87965 578.7519,508.59254 577.834,509.10035 C 576.916,509.60817 575.914,509.86207 574.8281,509.86207 C 573.0859,509.86207 571.6777,509.30348 570.6035,508.18629 C 569.5293,507.06911 568.9922,505.45973 568.9922,503.35817 L 568.9922,503.35817 z M 571.1601,503.35817 C 571.1601,504.95192 571.5078,506.14528 572.2031,506.93825 C 572.8984,507.73122 573.7734,508.1277 574.8281,508.1277 C 575.875,508.1277 576.7461,507.72926 577.4414,506.93239 C 578.1367,506.13551 578.4843,504.92067 578.4844,503.28785 C 578.4843,501.7488 578.1347,500.58279 577.4355,499.78981 C 576.7363,498.99685 575.8672,498.60037 574.8281,498.60035 C 573.7734,498.60037 572.8984,498.9949 572.2031,499.78395 C 571.5078,500.57302 571.1601,501.76443 571.1601,503.35817 L 571.1601,503.35817 z M 583.1367,509.58082 L 583.1367,497.13551 L 585.0234,497.13551 L 585.0234,498.8816 C 585.414,498.27224 585.9336,497.78201 586.582,497.4109 C 587.2304,497.03982 587.9687,496.85427 588.7969,496.85426 C 589.7187,496.85427 590.4746,497.04568 591.0644,497.42848 C 591.6543,497.8113 592.0703,498.34646 592.3125,499.03395 C 593.2968,497.58084 594.5781,496.85427 596.1562,496.85426 C 597.3906,496.85427 598.3398,497.19607 599.0039,497.87965 C 599.6679,498.56326 600,499.61599 600,501.03785 L 600,509.58082 L 597.9023,509.58082 L 597.9023,501.74098 C 597.9023,500.89724 597.8339,500.28982 597.6972,499.91871 C 597.5605,499.54763 597.3125,499.2488 596.9531,499.02223 C 596.5937,498.79568 596.1718,498.6824 595.6875,498.68239 C 594.8125,498.6824 594.0859,498.97341 593.5078,499.55543 C 592.9297,500.13747 592.6406,501.06911 592.6406,502.35035 L 592.6406,509.58082 L 590.5312,509.58082 L 590.5312,501.49489 C 590.5312,500.55739 590.3593,499.85427 590.0156,499.38551 C 589.6718,498.91677 589.1093,498.6824 588.3281,498.68239 C 587.7343,498.6824 587.1855,498.83865 586.6816,499.15114 C 586.1777,499.46365 585.8125,499.92068 585.5859,500.52223 C 585.3593,501.1238 585.2461,501.99099 585.2461,503.12379 L 585.2461,509.58082 L 583.1367,509.58082 z "
     id="flowRoot2333" />
  <metadata
     id="metadata15">
    <rdf:RDF>
      <cc:Work
         rdf:about="">
        <dc:format>image/svg+xml</dc:format>
        <dc:type
           rdf:resource="http://purl.org/dc/dcmitype/StillImage" />
        <dc:title>Flag of Colorado (pre 1964 Variation)</dc:title>
        <dc:description>The original Flag of Colorado did not specify the size of  sun and &quot;C&quot;. As a result, many varitions existed. Some contained the large &quot;C&quot; as on on the current flag while others wholly inscribed within the white stripe. In 1964, the Colorado government specified the size and position of the &quot;C&quot;.</dc:description>
        <dc:creator>
          <cc:Agent>
            <dc:title>Andrew Carlisle Carson</dc:title>
          </cc:Agent>
        </dc:creator>
        <dc:contributor>
          <cc:Agent>
            <dc:title>Devin Cook
www.devincook.com</dc:title>
          </cc:Agent>
        </dc:contributor>
        <cc:license
           rdf:resource="" />
        <dc:publisher>
          <cc:Agent>
            <dc:title>State of Colorado</dc:title>
          </cc:Agent>
        </dc:publisher>
      </cc:Work>
      <cc:License
         rdf:about="http://web.resource.org/cc/PublicDomain">
        <cc:permits
           rdf:resource="http://web.resource.org/cc/Reproduction" />
        <cc:permits
           rdf:resource="http://web.resource.org/cc/Distribution" />
        <cc:permits
           rdf:resource="http://web.resource.org/cc/DerivativeWorks" />
      </cc:License>
    </rdf:RDF>
  </metadata>
  <defs
     id="defs13" />
  <sodipodi:namedview
     inkscape:window-height="669"
     inkscape:window-width="744"
     inkscape:pageshadow="2"
     inkscape:pageopacity="0.0"
     guidetolerance="10.0"
     gridtolerance="10.0"
     objecttolerance="10.0"
     borderopacity="1.0"
     bordercolor="#666666"
     pagecolor="#ffffff"
     id="base"
     showgrid="true"
     inkscape:zoom="0.38678454"
     inkscape:cx="709.01267"
     inkscape:cy="371.74591"
     inkscape:window-x="18"
     inkscape:window-y="13"
     inkscape:current-layer="svg2"
     inkscape:object-nodes="true"
     inkscape:object-bbox="true" />
  <rect
     style="fill:#002868;fill-opacity:1"
     x="0"
     width="900"
     height="200"
     y="0"
     id="rect6" />
  <g
     id="g2167"
     transform="matrix(0.225,0,0,0.2249779,129,165.01329)">
    <path
       style="fill:#bf0a30"
       id="path8"
       d="M 1131,750 C 1059.2046,927.48288 871.71216,1029.2057 683.78317,992.63467 C 495.85418,956.0636 360.19008,791.4543 360.19008,600 C 360.19008,408.5457 495.85418,243.9364 683.78317,207.36533 C 871.71216,170.79425 1059.2046,272.51712 1131,450 L 760,600" />
    <circle
       style="fill:#ffd700"
       sodipodi:ry="200"
       sodipodi:rx="200"
       sodipodi:cy="600"
       sodipodi:cx="760"
       id="circle10"
       r="200"
       cy="600"
       cx="760" />
  </g>
  <rect
     style="fill:#002868;fill-opacity:1"
     x="0"
     width="900"
     height="200"
     y="400"
     id="rect3189" />
</svg>
